<?xml version="1.0" ?><svg viewBox="0 0 32 32" xmlns="http://www.w3.org/2000/svg"><defs><style>.cls-1{fill:none;stroke:#4d4d4d;stroke-linecap:round;stroke-linejoin:round;stroke-width:2px;}</style></defs><title/><g data-name="Layer 2" id="Layer_2"><rect class="cls-1" height="8" width="8" x="20" y="23"/><polygon class="cls-1" points="12 23 4 23 4 31 12 31 20 31 20 23 12 23"/><polygon class="cls-1" points="20 15 20 7 12 7 12 15 12 23 20 23 20 15"/><polygon class="cls-1" points="24 7 28 7 28 1 24 1 20 1 20 7 24 7"/><polygon class="cls-1" points="24 15 20 15 20 23 24 23 28 23 28 15 24 15"/><polygon class="cls-1" points="24 7 20 7 20 15 24 15 28 15 28 7 24 7"/></g></svg>