<?xml version="1.0" ?><svg viewBox="0 0 32 32" xmlns="http://www.w3.org/2000/svg"><defs><style>.cls-1{fill:none;stroke:#4d4d4d;stroke-linecap:round;stroke-linejoin:round;stroke-width:2px;}</style></defs><title/><g data-name="Layer 2" id="Layer_2"><rect class="cls-1" height="4" width="30" x="1" y="27"/><rect class="cls-1" height="12" width="22" x="5" y="15"/><polygon class="cls-1" points="30 12 16 9 2 12 2 15 30 15 30 12"/><line class="cls-1" x1="16" x2="16" y1="9" y2="4"/><rect class="cls-1" height="4" width="6" x="16" y="1"/><path class="cls-1" d="M16,19h0a4,4,0,0,1,4,4v4a0,0,0,0,1,0,0H12a0,0,0,0,1,0,0V23A4,4,0,0,1,16,19Z"/><line class="cls-1" x1="16" x2="16" y1="27" y2="31"/><line class="cls-1" x1="21" x2="21" y1="27" y2="31"/><line class="cls-1" x1="26" x2="26" y1="27" y2="31"/><line class="cls-1" x1="11" x2="11" y1="27" y2="31"/><line class="cls-1" x1="6" x2="6" y1="27" y2="31"/></g></svg>